<svg width="27" height="27" viewBox="0 0 27 27" fill="none" xmlns="http://www.w3.org/2000/svg">
<path d="M13.185 8.4036L13.1018 8.4981C12.9814 8.66072 12.9235 8.86117 12.9386 9.06293C12.9536 9.26468 13.0407 9.4543 13.1839 9.59723L16.2439 12.6572H8.71765L8.6029 12.6651C8.4011 12.6928 8.21613 12.7926 8.08214 12.946C7.94815 13.0994 7.87419 13.2962 7.87391 13.4999L7.88178 13.6135C7.90926 13.8157 8.00909 14.0011 8.16278 14.1353C8.31646 14.2696 8.51359 14.3436 8.71765 14.3436H16.2462L13.1839 17.4036L13.1018 17.4981C12.9746 17.6692 12.9169 17.8821 12.9403 18.0941C12.9637 18.306 13.0665 18.5012 13.228 18.6404C13.3894 18.7796 13.5976 18.8526 13.8107 18.8446C14.0237 18.8366 14.2259 18.7482 14.3764 18.5972L18.8787 14.0972L18.9597 14.0027C19.0802 13.8402 19.1383 13.6399 19.1234 13.4381C19.1085 13.2364 19.0217 13.0467 18.8787 12.9036L14.3775 8.4036L14.283 8.32148C14.1205 8.20097 13.9202 8.14286 13.7184 8.15773C13.5167 8.1726 13.327 8.25946 13.1839 8.40248L13.185 8.4036ZM13.5 24.751C19.7123 24.751 24.75 19.7144 24.75 13.501C24.75 7.2876 19.7123 2.25098 13.5 2.25098C7.28553 2.25098 2.25003 7.2876 2.25003 13.501C2.25003 19.7144 7.28553 24.751 13.5 24.751ZM13.5 3.93848C14.7558 3.93848 15.9993 4.18582 17.1594 4.66638C18.3196 5.14694 19.3738 5.85131 20.2617 6.73927C21.1497 7.62723 21.8541 8.68139 22.3346 9.84157C22.8152 11.0017 23.0625 12.2452 23.0625 13.501C23.0625 14.7567 22.8152 16.0002 22.3346 17.1604C21.8541 18.3206 21.1497 19.3747 20.2617 20.2627C19.3738 21.1506 18.3196 21.855 17.1594 22.3356C15.9993 22.8161 14.7558 23.0635 13.5 23.0635C10.9639 23.0635 8.53164 22.056 6.73832 20.2627C4.94501 18.4694 3.93753 16.0371 3.93753 13.501C3.93753 10.9648 4.94501 8.53259 6.73832 6.73927C8.53164 4.94596 10.9639 3.93848 13.5 3.93848Z" fill="white"/>
</svg>
